<?xml version="1.0" encoding="UTF-8" standalone="no"?>
<!-- Created with Inkscape (http://www.inkscape.org/) -->

<svg
   version="1.1"
   id="svg2"
   width="500"
   height="333"
   viewBox="0 0 300 200"
   sodipodi:docname="Generated Image December 08, 2025 - 5_14PM.jpeg.svg"
   inkscape:version="1.2.2 (b0a8486541, 2022-12-01)"
   xmlns:inkscape="http://www.inkscape.org/namespaces/inkscape"
   xmlns:sodipodi="http://sodipodi.sourceforge.net/DTD/sodipodi-0.dtd"
   xmlns="http://www.w3.org/2000/svg"
   xmlns:svg="http://www.w3.org/2000/svg">
  <sodipodi:namedview
     id="namedview6"
     pagecolor="#ffffff"
     bordercolor="#666666"
     borderopacity="1.0"
     inkscape:showpageshadow="2"
     inkscape:pageopacity="0.0"
     inkscape:pagecheckerboard="0"
     inkscape:deskcolor="#d1d1d1"
     showgrid="false"
     inkscape:zoom="2.8808594"
     inkscape:cx="125.30983"
     inkscape:cy="116.4583"
     inkscape:window-width="1920"
     inkscape:window-height="1131"
     inkscape:window-x="0"
     inkscape:window-y="32"
     inkscape:window-maximized="1"
     inkscape:current-layer="svg2" />
  <defs
     id="defs6" />
  <g
     id="g8"
     transform="translate(3.9983686,3.82893)">
    <path
       fill="#000000"
       style="stroke-width:0.322826"
       d="m 247.44534,148.78075 c -0.45224,-0.43447 -0.53605,-0.85018 -0.3737,-1.85385 0.11508,-0.7116 0.28956,-2.65368 0.38771,-4.31578 0.17823,-3.0181 0.17719,-3.02327 -0.80592,-4.03431 -0.5414,-0.55679 -1.05183,-1.01236 -1.1343,-1.01236 -0.0825,0 -0.22816,1.4729 -0.3238,3.27313 -0.29165,5.48975 -1.67164,7.26517 -5.2017,6.69221 -1.63131,-0.26477 -2.16478,-1.04931 -1.65979,-2.44096 0.19439,-0.53573 0.35344,-2.3546 0.35344,-4.04195 0,-2.71588 -0.0794,-3.13701 -0.69244,-3.66994 -0.86684,-0.75365 -1.61312,-2.11571 -1.61312,-2.9442 0,-0.34749 -0.37053,-1.30129 -0.82341,-2.11955 -0.51627,-0.9328 -0.82342,-2.00328 -0.82342,-2.86982 0,-1.22495 -0.1685,-1.53718 -1.48215,-2.74638 -1.01597,-0.9352 -1.48215,-1.62431 -1.48215,-2.19093 0,-0.45464 -0.14821,-0.9146 -0.32936,-1.02216 -0.21193,-0.12583 -0.32937,1.04203 -0.32937,3.27551 0,6.58331 -2.28083,10.48992 -7.4669,12.78932 -1.5052,0.66738 -2.01537,0.70528 -9.49546,0.70528 -7.85288,0 -7.91668,-0.005 -9.7163,-0.83073 -2.79559,-1.28197 -4.43075,-2.84398 -5.83705,-5.57591 l -1.24433,-2.41724 -0.18863,-8.08653 c -0.21662,-9.28658 -0.42325,-10.20649 -2.80719,-12.49671 -0.79564,-0.76436 -2.11669,-1.63558 -2.93567,-1.93605 -1.38149,-0.50686 -1.53219,-0.50881 -2.08647,-0.0269 -0.32859,0.28567 -0.85725,0.51941 -1.1748,0.51941 -0.31755,0 -1.19517,0.47064 -1.95026,1.04584 -0.75509,0.57523 -1.78747,1.21596 -2.29415,1.42388 -1.13001,0.46368 -3.50308,0.49074 -4.69997,0.0536 -0.71224,-0.26015 -1.17978,-0.18889 -2.35918,0.3596 -1.34752,0.62669 -1.45474,0.76171 -1.27817,1.60981 0.106,0.50915 0.35967,2.89551 0.56371,5.30302 0.58431,6.89421 -0.26944,13.53443 -2.51678,19.57503 l -1.11596,2.99959 0.95426,1.15747 c 1.15738,1.40385 1.46952,2.46052 1.04427,3.53501 -0.55113,1.39259 -1.68008,1.58839 -8.53667,1.48058 -6.1782,-0.0972 -6.29358,-0.1115 -7.15875,-0.88978 -1.27897,-1.15055 -1.38197,-1.42001 -2.31626,-6.05949 -0.46786,-2.32325 -0.92196,-4.50886 -1.00913,-4.85692 -0.13826,-0.5521 -0.43089,-0.63283 -2.2938,-0.63283 h -2.13532 l -0.35512,1.26566 c -0.19533,0.69612 -0.63541,2.81197 -0.97798,4.7019 -0.70934,3.91335 -1.07071,4.78182 -2.3764,5.71142 -0.85658,0.60983 -1.43934,0.66889 -7.4889,0.7588 l -6.56004,0.0975 -0.82761,-0.79508 c -1.29009,-1.23936 -1.05033,-2.83696 0.69622,-4.63959 l 0.78461,-0.8098 -1.29428,-3.30362 c -1.91785,-4.89522 -2.45759,-8.02638 -2.47856,-14.37822 -0.009,-2.95851 0.10606,-6.4826 0.25739,-7.83133 l 0.27513,-2.45223 -1.09855,-0.003 c -1.31659,-0.004 -3.98465,-1.15021 -5.45824,-2.34551 l -1.06603,-0.8647 -0.92696,0.63412 c -0.50985,0.34874 -1.36355,1.39211 -1.89709,2.31858 l -0.97014,1.68455 -0.18298,8.06863 c -0.16794,7.40504 -0.24444,8.21819 -0.93018,9.88698 -0.98478,2.39652 -3.5059,5.024 -5.90796,6.15721 l -1.87411,0.88413 -25.477269,0.0866 -25.477268,0.0866 0.222821,0.86258 c 0.424904,1.64486 1.403826,2.28644 3.488582,2.28644 2.327302,0 3.382526,0.6803 3.382526,2.1807 0,2.16804 0.698362,2.08224 -17.660095,2.16999 -17.873224,0.0854 -17.878344,0.085 -18.491302,-1.5894 -0.253432,-0.69229 -0.18244,-1.03691 0.357132,-1.73357 0.590527,-0.76245 0.949124,-0.88899 2.912532,-1.02772 3.177289,-0.22451 3.397743,-0.58072 3.52479,-5.69551 l 0.09824,-3.9552 -15.824461,-0.15822 C 3.9042928,133.59223 4.586171,133.6784 3.1759107,131.45647 2.5511012,130.47204 2.5341008,129.60862 2.5329015,98.798672 2.5316881,68.752226 2.5621017,67.097517 3.1335112,66.07395 3.4645229,65.481007 4.2403374,64.735702 4.857545,64.417706 c 1.0703857,-0.551494 3.0992485,-0.578125 43.94495,-0.577008 41.891203,9.08e-4 42.845685,0.01462 43.877198,0.618849 2.201265,1.289407 2.074541,-0.824245 2.074541,34.602103 0,32.0625 -6.65e-4,32.09006 -0.687826,32.9294 -1.478106,1.80524 -1.176716,1.77664 -18.728434,1.77664 H 59.18267 l 0.005,1.81941 c 0.0026,1.00066 0.128627,2.00662 0.279674,2.23545 0.223901,0.3392 4.831418,0.39766 24.944454,0.31641 l 24.669822,-0.0996 1.64683,-0.72815 c 2.17828,-0.96311 3.62265,-2.33953 4.88055,-4.65094 l 1.03321,-1.89849 0.1721,-8.06865 c 0.17062,-7.99863 0.18004,-8.0849 1.08642,-9.94423 0.50286,-1.03157 1.52224,-2.41476 2.26529,-3.07375 l 1.35096,-1.19817 -0.37143,-1.41709 c -0.20429,-0.77939 -0.36831,-1.95918 -0.36449,-2.62174 0.0107,-1.84658 1.40504,-5.237972 3.08172,-7.495238 1.54733,-2.083134 5.53009,-5.421416 7.78875,-6.528391 1.55628,-0.762737 1.84034,-1.157412 1.01432,-1.40927 -1.16268,-0.354515 -5.18405,-4.760548 -6.25311,-6.851264 -1.33778,-2.616242 -2.10021,-6.149462 -1.95389,-9.054635 l 0.11529,-2.28942 -2.14703,0.184785 c -1.93189,0.166261 -2.32857,0.09335 -3.95855,-0.728162 -2.09913,-1.057888 -3.76305,-3.148232 -4.11952,-5.175217 -0.18335,-1.042544 -0.3339,-1.252244 -0.77141,-1.07465 -1.45272,0.589711 -1.96973,0.515601 -2.57306,-0.36878 -0.92987,-1.363071 -0.85004,-6.694036 0.13091,-8.741605 l 0.71742,-1.497465 -1.02916,-0.256188 c -1.78082,-0.443303 -1.88941,-1.072387 -0.59849,-3.466994 1.39935,-2.595765 4.51825,-5.718396 6.83797,-6.846166 3.64555,-1.772351 7.6218,-2.219577 11.39119,-1.281232 2.703,0.672889 4.48666,1.730514 7.01538,4.159816 l 2.11696,2.033721 1.39234,-0.639192 c 2.52561,-1.159461 8.00739,-2.283008 12.06607,-2.473066 5.05056,-0.236492 9.07812,0.277191 13.78384,1.758033 l 3.84761,1.210808 2.15104,-2.125698 c 1.18306,-1.16913 2.77642,-2.430173 3.54079,-2.802299 4.76649,-2.320572 11.01712,-2.119074 15.35151,0.494877 2.12698,1.282714 5.30453,4.572513 6.29499,6.517361 1.11506,2.189487 1.02708,3.121543 -0.33478,3.546975 -1.00783,0.314836 -1.01058,0.321887 -0.54677,1.412282 1.3897,3.267224 1.1108,8.893148 -0.47533,9.587415 -0.54919,0.24039 -1.00098,0.231219 -1.60353,-0.03259 -1.10681,-0.484467 -1.03198,-0.531056 -1.2928,0.804641 -0.78264,4.007725 -4.29388,6.448543 -8.54068,5.936956 l -1.67886,-0.202237 0.10843,2.588839 c 0.2292,5.473473 -1.53537,9.80378 -5.55225,13.625295 l -2.51783,2.395392 2.71275,1.334471 c 4.00523,1.970253 6.48732,3.674929 8.84115,6.072017 2.2045,2.245017 3.48913,4.720565 3.48913,6.723765 0,1.13933 1.30804,2.75153 2.23655,2.75664 1.28841,0.008 3.9397,1.56256 5.55195,3.25728 2.65834,2.79428 2.8272,3.50463 3.06117,12.87687 0.19888,7.96637 0.21303,8.09272 1.11714,9.96715 1.51012,3.13085 3.69666,4.83357 7.0703,5.5059 2.2558,0.44953 10.72176,0.44953 12.97756,0 3.39325,-0.67624 6.25468,-2.98297 7.36623,-5.93831 0.83852,-2.22947 1.0984,-14.05699 0.34842,-15.85768 -0.55859,-1.34117 -0.67832,-4.13968 -0.22359,-5.22626 0.15043,-0.35943 0.1167,-0.90566 -0.0779,-1.26431 -0.50666,-0.93302 -0.41622,-4.01329 0.14982,-5.1033 0.29682,-0.57165 0.39332,-1.19267 0.24272,-1.56224 -0.42049,-1.03181 -0.32312,-3.26161 0.1944,-4.451505 0.3802,-0.87416 0.41582,-1.424052 0.15818,-2.442061 -0.24124,-0.953261 -0.21762,-1.748067 0.0861,-2.895946 l 0.41868,-1.58208 -1.83453,-1.301838 c -1.39008,-0.986439 -2.02436,-1.714681 -2.61811,-3.00596 -0.98356,-2.139093 -1.09666,-5.120601 -0.24175,-6.374061 0.31702,-0.464808 0.57639,-1.313814 0.57639,-1.886673 0,-0.572868 0.16247,-1.539004 0.36103,-2.146957 0.30764,-0.942011 0.90699,-4.792409 0.98472,-6.326247 0.0133,-0.261046 -0.30001,-1.32895 -0.69609,-2.373119 -1.31695,-3.47203 -0.31759,-8.038486 2.03696,-9.307509 1.79137,-0.965492 2.84297,0.175133 4.69801,5.095777 0.45621,1.210113 0.72282,1.501922 1.44552,1.582089 0.5149,0.05712 1.35388,-0.199967 2.00257,-0.613637 1.37864,-0.87917 2.83031,-0.905819 4.24376,-0.07791 0.59311,0.347406 1.64619,0.631661 2.34012,0.631661 h 1.26174 l 0.19084,-2.186828 c 0.44127,-5.056642 2.8256,-6.448516 5.77707,-3.372432 2.52796,2.634702 3.51888,7.651928 2.22855,11.283701 -0.48807,1.373759 -0.47972,1.525302 0.15352,2.784437 0.42185,0.838809 0.65047,1.881989 0.61772,2.818815 -0.0286,0.817952 0.18022,2.056739 0.464,2.752857 0.65554,1.608202 0.67816,3.352585 0.0617,4.769747 -0.27382,0.629571 -0.39917,1.513444 -0.28944,2.040612 0.10923,0.524555 -0.0462,1.634281 -0.35644,2.545565 -0.44759,1.31465 -0.47953,1.820916 -0.17139,2.717873 0.27777,0.808519 0.28345,1.465566 0.0215,2.465389 -0.29121,1.111003 -0.26081,1.548927 0.16436,2.367678 0.32764,0.630916 0.4676,1.498472 0.3763,2.3324 -0.20148,1.840472 0.7634,3.700972 1.91939,3.700972 0.4611,0 1.13577,0.1529 1.49927,0.33981 0.48036,0.24696 1.10598,0.23019 2.29022,-0.0614 1.28283,-0.31586 1.86272,-0.32009 2.7269,-0.0199 0.89826,0.31204 1.31382,0.29447 2.28866,-0.0968 1.49455,-0.59992 2.95705,-0.60934 4.13006,-0.0266 0.58685,0.29153 1.07703,0.3493 1.38345,0.16305 0.9585,-0.58263 3.13913,-0.32629 4.44025,0.52196 0.69187,0.45106 1.75876,0.86484 2.37084,0.91949 0.61207,0.0547 1.69964,0.4724 2.41679,0.92834 1.02365,0.65078 1.43962,0.75919 1.93521,0.50438 1.12776,-0.57982 3.1829,-0.38379 4.19004,0.39968 0.51206,0.39833 1.32333,0.88696 1.80284,1.08582 0.4795,0.19885 1.24588,0.83406 1.70309,1.41155 0.75923,0.95899 0.83217,1.32601 0.84156,4.23452 0.0114,3.523 -0.54985,5.01349 -2.02139,5.36831 -0.87909,0.21196 -1.42981,2.06235 -1.83354,6.16057 -0.12856,1.30521 -0.416,2.68414 -0.63874,3.06426 -0.22273,0.38012 -0.4058,1.44802 -0.40684,2.37313 -0.003,2.58581 -0.5572,5.26295 -1.42228,6.86979 -0.47625,0.88461 -0.86203,2.28314 -0.982,3.56004 -0.64111,6.82335 -1.43315,8.1805 -4.77419,8.1805 -2.57409,0 -2.94687,-0.39521 -2.42428,-2.57018 0.21033,-0.87534 0.3824,-2.89908 0.3824,-4.49722 0,-2.55409 -0.0789,-2.9531 -0.6527,-3.2973 -0.74588,-0.4475 -0.81387,-0.28173 -1.13634,2.77069 -0.44121,4.17649 -1.46436,5.69347 -3.9977,5.92733 -1.29731,0.11975 -1.79759,0.0209 -2.44574,-0.48332 -0.78197,-0.6083 -0.79817,-0.6937 -0.40154,-2.11838 0.22733,-0.81648 0.50559,-2.53314 0.61835,-3.81477 0.20078,-2.28185 0.18359,-2.35372 -0.82812,-3.46069 -0.56824,-0.62174 -1.32326,-1.67672 -1.67782,-2.34439 -0.54574,-1.02771 -0.85189,-1.24578 -1.99541,-1.42146 -0.96184,-0.14777 -1.55655,-0.069 -2.06558,0.2735 -0.39315,0.26455 -1.09862,0.481 -1.56769,0.481 -0.99937,0 -2.09298,1.24715 -2.44541,2.78874 -0.1287,0.56288 -0.59859,1.43968 -1.04422,1.94847 -0.65753,0.75071 -0.87107,1.47971 -1.13318,3.86853 -0.36155,3.29503 -0.99996,5.27892 -1.97012,6.12239 -0.95928,0.83401 -3.96882,1.01549 -4.72902,0.28516 z M 65.045386,146.36084 c 0.52088,-0.50038 0.498858,-0.74121 -0.122336,-1.33798 -0.456252,-0.43832 -2.404658,-0.49724 -16.444788,-0.49724 -14.04013,0 -15.988536,0.0589 -16.444788,0.49724 -0.621193,0.59677 -0.643216,0.8376 -0.122336,1.33798 0.569515,0.54713 32.564735,0.54713 33.134248,0 z m 81.044014,-1.15822 c 0.35621,-0.3422 0.78401,-1.50137 1.02178,-2.76864 0.22498,-1.19898 0.69884,-3.30376 1.05306,-4.67726 0.35422,-1.3735 0.52431,-2.59464 0.37802,-2.71363 -0.14631,-0.11899 -0.90502,-0.40916 -1.68601,-0.64483 -1.68614,-0.50878 -2.35736,-1.40921 -1.59584,-2.14077 0.45616,-0.43824 0.69798,-0.42664 2.42005,0.11602 2.60717,0.82157 8.44293,0.84319 10.83707,0.0401 1.81905,-0.61015 2.76867,-0.4766 2.76867,0.38935 0,0.73741 -0.8825,1.43385 -2.4171,1.90749 -1.05849,0.32669 -1.23379,0.50064 -1.07673,1.06837 0.10318,0.37297 0.57043,2.52917 1.03836,4.79155 0.63673,3.07861 1.02036,4.25271 1.52492,4.66715 0.58432,0.47995 1.41546,0.55372 6.23691,0.55372 6.30515,0 6.52702,-0.10698 4.19636,-2.0235 l -1.36635,-1.12358 1.37324,-3.31216 c 2.98569,-7.2012 3.82674,-14.70541 2.63485,-23.5094 l -0.35179,-2.59857 -2.84968,-0.091 c -2.59369,-0.0828 -2.87891,-0.15492 -3.17484,-0.8029 -0.30819,-0.67487 -0.50973,-0.71194 -3.87005,-0.71194 h -3.54492 v -4.58804 -4.58806 h 3.60011 c 3.48271,0 3.60358,-0.0231 3.70538,-0.71193 0.10087,-0.68204 0.25739,-0.71605 3.72827,-0.80967 2.04696,-0.0552 4.174,0.0574 4.88957,0.25904 1.06617,0.30035 1.36141,0.27429 1.86645,-0.16479 0.47509,-0.41303 0.74272,-0.44818 1.28607,-0.1688 0.8821,0.45351 0.87243,0.5375 -0.296,2.57397 -1.52431,2.65668 -1.22915,4.48183 0.9533,5.89476 1.41291,0.91473 2.92437,0.91805 4.31395,0.01 1.65609,-1.08282 2.31776,-2.154 2.52561,-4.08877 0.42168,-3.92502 -2.2883,-7.568921 -8.1282,-10.929359 -2.63492,-1.516223 -6.5853,-3.254957 -7.39518,-3.254957 -0.20071,0 -1.55609,0.482614 -3.01193,1.072489 -5.20088,2.107206 -7.81963,2.568572 -14.46005,2.547507 -6.61893,-0.02098 -9.3835,-0.488407 -13.99805,-2.366691 -3.70362,-1.507497 -3.75687,-1.504618 -6.752,0.364222 -3.45512,2.15581 -6.97522,5.601659 -8.20725,8.034059 -2.85322,5.63307 0.59423,10.85473 7.19749,10.90165 3.51834,0.0251 5.78556,-1.65144 5.78556,-4.278 0,-1.57329 -1.72946,-3.15412 -4.44645,-4.06432 -1.54168,-0.51646 -1.99938,-0.81884 -2.08164,-1.3752 -0.17652,-1.19394 1.17878,-1.25332 4.09212,-0.17931 0.2759,0.10171 0.45977,-0.0339 0.45977,-0.33899 0,-0.27966 0.29643,-0.79325 0.65873,-1.14131 0.61608,-0.591863 1.09788,-0.636129 7.43934,-0.63284 l 7.62977,0.0038 c -0.009,13.1884 -0.0329,5.54676 0.008,14.95834 -0.3759,0.19326 -4.13025,0.22567 -7.87342,0.22567 -6.26548,0 -6.35434,-0.01 -7.18538,-0.76801 -0.7722,-0.70484 -0.92509,-0.73392 -1.85824,-0.35335 l -1.01683,0.41467 -0.43126,4.29218 c -0.81855,8.14725 0.29671,15.46398 3.35831,22.03204 l 0.953,2.04445 -1.49961,1.32272 c -0.82477,0.72751 -1.49957,1.48055 -1.49957,1.67347 0,0.24332 1.76499,0.35071 5.76391,0.35071 5.18062,0 5.82591,-0.0596 6.37667,-0.58868 z m 105.92751,-1.23072 c 0,0.83306 0.2641,-2.02265 0.34816,-2.65779 l 0.15282,-1.15481 -1.56311,-0.13421 c -0.8597,-0.0739 -1.60787,-0.10443 -1.66258,-0.068 -0.0547,0.0363 0.002,1.14493 0.12663,2.46338 0.20833,2.20872 0.29383,2.42107 1.08758,2.70083 1.30264,0.4591 1.5105,-2.77141 1.5105,-1.14939 z m 27.1332,0 c 0.16683,-0.30455 0.40587,-1.55234 0.53124,-2.77288 l 0.22793,-2.21916 -1.50777,0.11521 -1.50773,0.1152 v 2.47747 c 0,2.64559 -0.11434,2.45951 1.71758,2.79481 0.12948,0.0237 0.37192,-0.2061 0.53875,-0.51065 z M 59.512033,143.39738 c 0,-0.0985 -0.173639,-0.49002 -0.385862,-0.87016 -0.212225,-0.38012 -0.551062,-1.97262 -0.752971,-3.53889 l -0.367109,-2.84775 h -9.704407 -9.704411 l -0.203517,2.84775 c -0.111936,1.56627 -0.313268,3.23932 -0.447413,3.7179 l -0.243899,0.87015 h 10.904795 c 5.997637,0 10.904794,-0.0806 10.904794,-0.179 z m 183.910657,-2.58286 0.20838,-2.28726 -1.49676,0.0625 -1.49676,0.0625 0.0953,2.22253 c 0.094,2.19116 0.10925,2.22513 1.08341,2.40644 0.54344,0.10115 1.08034,0.10211 1.19307,0.002 0.11274,-0.1 0.29875,-1.21102 0.41335,-2.46901 z m 27.65306,1.10067 c 0.41968,0 0.28471,-1.46861 0.41031,-2.39343 l 0.22834,-1.68151 -1.44505,0.0994 -1.44506,0.0994 -0.0969,2.11199 c -0.091,1.98493 -0.0514,2.12035 0.65875,2.25093 1.40067,0.2576 0.92451,-0.4868 1.68953,-0.4868 z m -18.75223,-3.84267 c 0.95921,-0.92151 2.17334,-1.59943 2.17334,-2.58677 0,-0.36972 0.29643,-1.00057 0.65873,-1.40188 0.36231,-0.40131 0.6653,-1.17064 0.67327,-1.7096 0.008,-0.53896 0.20968,-1.69189 0.44816,-2.56204 0.32706,-1.19326 0.58656,-1.58208 1.05591,-1.58208 0.52652,0 0.63749,0.27995 0.72106,1.8194 0.11178,2.0591 0.43566,2.23816 2.17763,1.20387 0.70956,-0.42128 1.18953,-0.52266 1.52101,-0.32126 0.83469,0.50711 2.50012,0.33138 3.4156,-0.36044 0.53919,-0.40744 1.1614,-0.60263 1.6089,-0.50468 1.56293,0.34207 2.01947,-0.1544 2.04763,-2.2267 0.0481,-3.54735 1.58092,-3.80412 1.90499,-0.31913 0.25604,2.7534 1.49192,5.60986 2.77096,6.40445 0.56027,0.34806 1.25998,1.15106 1.5549,1.78445 0.85202,1.82976 3.42991,2.14172 5.19288,0.62845 1.1385,-0.97726 1.53742,-2.57054 1.72858,-6.904 0.0476,-1.07787 0.30841,-2.28817 0.57969,-2.68954 0.7065,-1.04532 0.88801,-2.32604 0.54034,-3.81259 -0.19305,-0.8254 -0.18575,-1.36251 0.0201,-1.48478 0.43597,-0.25885 1.02257,-1.79451 1.02257,-2.67698 0,-0.39425 -0.36992,-1.4173 -0.82204,-2.27342 -0.45211,-0.85614 -0.82267,-2.08129 -0.82342,-2.72257 -0.002,-1.75425 -0.50288,-2.69042 -1.95572,-3.65588 -0.76753,-0.51005 -1.46741,-1.30127 -1.6816,-1.90104 -0.48532,-1.35912 -1.47595,-1.97858 -3.16401,-1.97858 -1.09809,0 -1.58738,-0.19586 -2.37162,-0.94927 -1.12893,-1.08452 -2.56015,-1.25013 -3.84029,-0.44433 -0.74943,0.47174 -0.85979,0.46135 -1.67965,-0.1582 -1.16411,-0.87968 -2.57016,-0.83803 -3.87032,0.11465 l -1.06146,0.77779 -0.97511,-0.61749 c -1.24871,-0.79076 -1.94708,-0.78058 -3.34372,0.0487 l -1.12894,0.67029 -0.74269,-0.67029 c -0.83563,-0.75417 -1.75111,-0.84551 -2.99924,-0.29918 -1.09284,0.47836 -1.53461,0.0732 -1.61049,-1.47667 -0.0426,-0.87122 -0.28579,-1.33008 -0.95168,-1.79608 -0.87249,-0.61057 -0.88155,-0.64975 -0.36969,-1.600645 0.61437,-1.141355 0.43063,-2.876404 -0.39772,-3.755745 -0.48187,-0.511515 -0.4962,-0.713943 -0.11337,-1.601799 0.53953,-1.251362 0.45113,-2.697226 -0.2256,-3.689448 -0.47106,-0.69068 -0.46067,-0.803071 0.13236,-1.431445 0.86268,-0.914089 1.12649,-2.142897 0.70779,-3.296751 -0.28447,-0.78394 -0.22663,-1.135385 0.33165,-2.015117 0.88925,-1.401272 0.85546,-2.679584 -0.1198,-4.530219 -0.64844,-1.230488 -0.73193,-1.655481 -0.44439,-2.261781 0.54818,-1.155842 -0.0741,-2.838836 -1.01286,-2.739565 -1.13421,0.119918 -1.15162,-0.596458 -0.0628,-2.584944 0.86533,-1.580327 1.00105,-2.160677 1.00105,-4.280203 0,-2.652453 -0.34454,-3.95114 -1.53245,-5.776079 -2.05213,-3.15269 -3.16326,-1.697748 -3.25987,4.268582 -0.0332,2.050664 -0.16135,3.825473 -0.28475,3.94402 -0.44798,0.43035 -1.34809,-0.483168 -1.45004,-1.47164 -0.1287,-1.247622 -1.23954,-1.875423 -2.32809,-1.315748 -0.59051,0.303586 -0.88184,0.232118 -1.80192,-0.442073 -1.43981,-1.055019 -2.31389,-1.018454 -3.16697,0.132485 -0.61073,0.823981 -0.78888,0.895313 -1.48029,0.59268 -1.26153,-0.552202 -2.38264,-0.09641 -2.85597,1.161127 -0.2911,0.773352 -0.61968,1.106838 -1.09139,1.107656 -1.09508,0.0018 -2.7794,1.173239 -3.02192,2.10152 -0.1231,0.471165 -0.07,1.248022 0.11789,1.72635 0.27705,0.705117 0.21583,1.068521 -0.32351,1.920541 -0.41385,0.653761 -0.72462,1.828489 -0.82244,3.108826 -0.0864,1.13189 -0.38747,2.409338 -0.66886,2.838753 -0.59572,0.909142 -0.62424,3.438744 -0.0509,4.505931 0.88713,1.650977 2.09156,2.840223 3.70346,3.656687 1.58106,0.800855 1.99794,0.865531 5.57889,0.865531 3.39794,0 3.87013,0.06455 3.87005,0.529194 -1.6e-4,0.987283 -3.64176,1.687778 -6.27755,1.207543 -1.55245,-0.282829 -1.84498,-0.25489 -2.19886,0.210045 -0.75217,0.9882 -0.84166,2.510051 -0.22145,3.765672 0.57325,1.160541 0.57038,1.211634 -0.13402,2.387475 -0.84361,1.408144 -0.92315,2.857054 -0.21393,3.896894 0.46832,0.68667 0.44386,0.85383 -0.32936,2.25091 -1.00662,1.81874 -1.04776,2.81652 -0.17297,4.19492 0.6068,0.95614 0.61994,1.11385 0.16345,1.96189 -0.78672,1.46155 -0.64276,3.58572 0.31733,4.68183 0.6845,0.78151 0.76689,1.08585 0.51884,1.91671 -0.40333,1.35107 0.13296,3.03223 1.23137,3.86005 0.59782,0.45055 1.00363,1.1636 1.22377,2.1502 0.28196,1.26361 0.50826,1.56009 1.5719,2.05932 0.68338,0.32074 1.46305,0.99286 1.73259,1.49359 0.59037,1.09679 1.41454,1.56202 2.76715,1.56202 0.55536,0 1.00974,0.14448 1.00974,0.32107 0,0.37298 1.94575,1.5745 2.5526,1.57625 0.22644,6.3e-4 0.4117,-0.32757 0.4117,-0.72938 0,-0.95554 0.84136,-2.06719 1.24317,-1.64258 0.16469,0.17404 0.48759,1.17076 0.71758,2.21493 0.22998,1.04418 0.53116,2.04089 0.6693,2.21492 0.13814,0.17404 0.35707,1.0186 0.48652,1.87682 0.17657,1.17049 0.49412,1.79259 1.27081,2.48961 1.6932,1.51949 2.98984,2.31278 4.30836,1.04609 z M 233.77505,86.96121 c 0,-0.291265 -0.96355,-0.20566 -1.57193,-0.110812 -1.15452,0.179991 -2.40872,-0.531745 -2.40872,-1.366922 0,-0.670949 0.62908,-0.834377 1.17883,-0.306219 0.86698,0.832898 1.4561,0.607326 1.4561,-0.557505 0,-0.713342 -0.26524,-1.291677 -0.82341,-1.795439 -0.45288,-0.40874 -0.82343,-0.923514 -0.82343,-1.143956 0,-0.767277 0.71269,-0.816173 1.50278,-0.103111 0.79268,0.715405 0.79906,0.715803 1.94596,0.122442 0.94074,-0.486709 1.22683,-0.520523 1.56824,-0.185348 0.33889,0.332724 0.18485,0.599082 -0.81756,1.413693 -1.33211,1.082532 -1.49797,1.644894 -0.76798,2.603966 0.45944,0.603622 0.48363,0.601997 1.46881,-0.0977 1.22737,-0.871769 1.68709,-0.899445 1.68709,-0.101586 0,1.268959 -3.59478,2.988172 -3.59478,1.628532 z m 7.43354,-5.98122 c -1.18622,-1.259227 -0.26829,-3.534773 1.42587,-3.534773 1.93837,0 2.92359,2.604511 1.40639,3.717904 -0.78459,0.575765 -2.20381,0.484004 -2.83226,-0.183131 z m -12.77724,-0.05984 c -1.34538,-0.754811 -0.87134,-3.15279 0.71915,-3.637738 1.70625,-0.52025 2.75587,2.439992 1.22934,3.467172 -0.83846,0.564188 -1.19177,0.595115 -1.94849,0.170566 z m 18.43238,-9.015019 c -0.13027,0 0.12116,-0.978421 0.47396,-1.977608 0.63546,-1.79967 0.64431,-2.95356 0.0474,-6.167413 -0.32729,-1.761979 0.63581,-1.598069 1.36334,0.232001 1.07054,2.692975 0.21376,8.073942 -1.28556,8.073942 -0.23737,0 -0.46876,-0.160922 -0.59907,-0.160922 z m -3.20908,64.146299 c 0.9839,-0.84455 1.01062,-0.93274 0.66096,-2.18025 -0.31615,-1.12788 -0.51233,-1.32677 -1.48109,-1.50136 -0.61417,-0.11069 -1.63018,-0.53603 -2.25779,-0.94519 -1.26554,-0.82504 -3.47931,-1.61445 -3.76305,-1.34188 -0.10045,0.0965 0.20592,0.81239 0.68081,1.59087 0.47488,0.77848 0.86343,1.828 0.86343,2.33227 0,0.90709 0.77222,1.8292 2.14088,2.55642 1.08781,0.57799 2.07313,0.41848 3.15585,-0.51088 z m 28.07928,-0.36464 c 0.17411,-0.1673 -0.11392,-0.78155 -0.70198,-1.49706 -0.54847,-0.66736 -1.05606,-1.49818 -1.12795,-1.84624 -0.0731,-0.35435 -0.33951,-0.58561 -0.60521,-0.52553 -0.26097,0.0589 -1.0975,0.11703 -1.85898,0.12898 -1.60411,0.0252 -1.95625,0.50926 -1.28182,1.76213 0.91687,1.70335 2.65577,2.68031 4.30286,2.41743 0.53779,-0.0859 1.11068,-0.28371 1.27308,-0.43971 z M 88.759063,132.24515 c 0,-0.46038 0.897964,-0.77135 1.070439,-1.20717 0.469382,-1.18602 0.419042,-63.466068 -0.05205,-64.459461 C 89.576308,66.154452 89.050585,65.649383 88.609158,65.456172 88.034669,65.204769 76.148873,65.104917 46.790615,65.104917 H 5.7746581 l -0.962763,0.924904 -0.9627631,0.924905 v 31.595653 c 0,29.141511 0.043224,31.656411 0.5565129,32.377991 0.3060806,0.43028 0.78778,0.92471 1.0704398,1.09875 0.3299931,0.20318 12.8913553,0.37304 35.0973883,0.47463 48.439768,0.22159 48.18559,0.72067 48.18559,-0.25655 z m -43.105749,-3.19969 c -0.580399,-0.5576 -0.962764,-1.25841 -0.962764,-1.76464 0,-1.02265 1.630765,-2.68956 2.631248,-2.68956 2.579337,0 3.937444,2.89443 2.159533,4.60245 -1.133208,1.08864 -2.599602,1.03186 -3.828017,-0.14825 z m 2.923758,-0.72046 c 0.863942,-0.82998 0.242008,-2.46807 -0.93705,-2.46807 -0.297997,0 -0.810622,0.28537 -1.13917,0.63412 -1.212914,1.28758 0.796961,3.06291 2.07622,1.83395 z M 7.5545025,121.85105 C 7.6653343,121.53162 7.1427942,116.02055 7.1427942,94.821703 V 67.952669 H 46.997965 86.853131 l -0.08416,26.97455 -0.08416,26.974551 -39.359275,0.0548 c -21.647605,0.0301 -39.8482483,0.11717 -39.7709838,-0.1055 z M 85.861342,95.506833 c 0,-13.908122 -0.08995,-25.512716 -0.199924,-25.78799 -0.18073,-0.452469 -3.911375,-0.500511 -38.865227,-0.500511 H 8.1308936 v 25.577049 c 0,14.067379 0.09881,25.671979 0.2195779,25.787999 0.1207677,0.11601 17.6101145,0.21093 38.8652215,0.21093 h 38.645649 z m -74.99284,22.678447 c 0,0.5431 -0.583541,-44.863421 -0.286319,-46.001076 l 0.196191,-0.750952 H 47.0045 83.230634 l -0.08438,23.493967 -0.08448,23.493961 -35.962935,0.0805 C 18.54885,118.56555 10.868545,117.8097 10.868545,118.18531 Z M 81.908947,97.695904 V 78.078048 H 46.83143 11.753924 V 97.695904 117.31377 H 46.83143 81.908947 Z m -65.04687,-11.70281 c -0.11032,-0.171473 0.471231,-0.766706 1.292338,-1.322722 l 1.492919,-1.010927 -0.957811,-0.44565 c -1.374497,-0.639514 -2.199784,-1.585093 -1.755753,-2.011667 0.254469,-0.244467 0.926373,0.03087 2.363654,0.968507 1.104468,0.720543 2.008121,1.443383 2.008121,1.606304 0,0.362669 -3.294431,2.527958 -3.846218,2.527958 -0.21817,0 -0.486929,-0.14032 -0.59725,-0.311803 z M 81.841654,74.834777 81.939027,72.69897 H 46.846479 11.753923 v 2.053662 2.05367 l 15.891922,0.08217 c 8.740556,0.04522 24.488382,0.08217 34.995166,0.08217 h 19.10324 z m -68.111535,-0.0395 c 0,-0.949274 0.425178,-1.261005 1.339613,-0.982189 1.035379,0.315699 0.716191,1.548339 -0.433856,1.675457 -0.774984,0.08563 -0.905757,-0.01444 -0.905757,-0.693268 z m 3.742138,0.276773 c -0.288297,-0.721759 0.115225,-1.423871 0.818324,-1.423871 0.799053,0 1.499937,0.795707 1.250633,1.419831 -0.247301,0.61913 -1.82204,0.622191 -2.068957,0.0036 z m 3.833288,-0.326349 c 0,-0.980028 0.855456,-1.360566 1.552728,-0.690706 0.697267,0.669859 0.301159,1.491679 -0.718977,1.491679 -0.672514,0 -0.833751,-0.154902 -0.833751,-0.800973 z m 70.480752,57.599639 c 2.115893,-1.05115 1.979836,1.23612 1.979836,-33.281112 0,-23.325686 -0.09923,-31.607405 -0.385929,-32.211907 -0.360774,-0.760695 -2.452204,-2.29051 -2.745786,-2.008462 -0.07293,0.0701 0.08575,0.736896 0.352834,1.481638 0.417704,1.164731 0.473248,5.796417 0.397117,33.116601 -0.06938,24.896102 -0.177494,31.847972 -0.500193,32.157942 -0.413518,0.39718 -0.568983,1.21813 -0.230669,1.21813 0.09953,0 0.609325,-0.21276 1.13279,-0.47283 z M 286.50181,116.15723 c 0.92701,0 0.78049,-1.91865 0.2188,-3.10295 -0.30168,-0.63609 -0.28684,-0.98216 0.0695,-1.62185 0.38863,-0.69761 0.38303,-0.93338 -0.0393,-1.65848 -0.2712,-0.46562 -0.99088,-1.00163 -1.60233,-1.1934 -0.61051,-0.19146 -1.27304,-0.56231 -1.4723,-0.82409 -0.56632,-0.74403 -1.63989,-0.93903 -2.35325,-0.42745 -0.61814,0.44331 -0.59502,0.49717 0.63621,1.48209 1.40507,1.12397 2.49158,3.08745 2.50282,4.52285 0.006,0.84394 0.96955,3.31942 1.29877,3.33879 0.0763,0.005 0.29427,-0.51551 0.74107,-0.51551 z m -137.40215,-8.97597 v -6.01908 l -6.00669,0.0862 c -5.46836,0.0785 -6.01685,0.13698 -6.11991,0.6524 -0.0634,0.31709 0.39784,1.10961 1.04846,1.80146 2.23416,2.37571 2.2521,4.95766 0.0538,7.7245 -0.73086,0.91983 -0.98739,1.47005 -0.73195,1.56988 0.21629,0.0845 2.94998,0.1649 6.07484,0.17866 l 5.68156,0.0251 z m 26.4533,3.76127 c -0.44596,0 0.75826,-0.38918 0.80577,-0.42572 0.0475,-0.0366 -0.22845,-0.75008 -0.61319,-1.58564 -0.69623,-1.51209 -0.75969,-3.8897 -0.14141,-5.29808 0.36998,-0.84275 -1.13978,-1.22821 -4.39998,-1.12344 l -2.82108,0.0907 -0.1226,3.26449 c -0.0674,1.79547 -0.0272,3.75331 0.0896,4.35073 l 0.21211,1.08624 h 3.13571 c 1.72464,0 4.30107,-0.35927 3.85512,-0.35927 z m -8.73834,-3.99147 0.0939,-3.24327 h -2.97582 -2.97582 v 3.33471 3.33468 l 2.88197,-0.0915 2.88194,-0.0915 z m -3.88158,1.50298 c 0,-0.80157 0.12809,-0.94924 0.82342,-0.94924 0.69532,0 0.82341,0.14767 0.82341,0.94924 0,0.80161 -0.12809,0.94926 -0.82341,0.94926 -0.69533,0 -0.82342,-0.14765 -0.82342,-0.94926 z m 0,-3.00596 c 0,-0.63284 0.16468,-0.79104 0.82342,-0.79104 0.65873,0 0.82341,0.1582 0.82341,0.79104 0,0.63285 -0.16468,0.79106 -0.82341,0.79106 -0.65874,0 -0.82342,-0.15821 -0.82342,-0.79106 z m -2.47025,-13.565345 c 8.37562,0 14.48716,-5.610553 16.97135,-10.482338 2.23687,-4.386792 2.49564,-8.897353 0.83503,-14.555184 -0.4597,-1.566271 -0.83766,-3.163132 -0.83992,-3.548574 -0.003,-0.598637 0.81642,-1.355899 1.46811,-1.355899 0.32472,0 1.39443,2.621699 1.64043,4.020437 0.31957,1.817212 0.7683,2.261346 2.61635,2.589683 3.7913,0.673565 6.45757,-1.998082 6.45757,-6.470598 0,-1.939637 0.68865,-2.375871 2.32359,-1.471922 0.69589,0.384751 1.36698,0.699569 1.49129,0.699569 0.12432,0 0.1511,-1.006088 0.0594,-2.235741 -0.13237,-1.777379 -0.42626,-2.720806 -1.43344,-4.601677 -1.46286,-2.731824 -1.34386,-3.34786 0.69619,-3.604344 l 1.25839,-0.158209 -1.74264,-2.008674 c -1.88773,-2.17594 -4.92798,-4.262039 -7.07087,-4.851762 -2.20502,-0.606828 -6.01797,-0.441669 -8.17918,0.354297 -2.04241,0.752214 -5.02065,3.127013 -6.17828,4.926477 -0.93614,1.455142 -1.63203,1.587781 -3.68763,0.702851 -3.49631,-1.505157 -6.0204,-2.207128 -9.97952,-2.775403 -5.22965,-0.75064 -12.97003,0.355406 -17.90509,2.558518 -1.15253,0.514515 -2.29409,0.935488 -2.53677,0.935488 -0.24268,0 -0.88909,-0.625329 -1.43647,-1.389625 -2.19453,-3.064272 -5.42846,-5.091062 -8.78625,-5.506586 -5.1673,-0.639449 -9.54305,1.184754 -13.05347,5.441928 l -1.32963,1.612491 1.44441,0.158209 c 1.2645,0.138505 1.4569,0.261915 1.54486,0.990988 0.0595,0.493937 -0.36104,1.668508 -1.0338,2.88677 -1.15124,2.08476 -1.76874,4.731047 -1.3791,5.910388 l 0.21436,0.648839 1.23933,-0.685223 c 1.82784,-1.010609 2.20615,-0.708539 2.43786,1.946628 0.36023,4.127952 2.06049,6.020963 5.40793,6.020963 0.98146,0 2.06235,-0.142863 2.40196,-0.317469 0.39248,-0.2018 0.93032,-1.302836 1.47605,-3.021641 0.87323,-2.750324 1.43315,-3.384182 2.4367,-2.758496 0.63665,0.396946 0.64825,0.272805 -0.45107,4.831943 -2.59222,10.750811 0.72553,17.807808 10.40472,22.131322 2.41868,1.080361 7.12822,2.422442 10.01057,2.85271 2.68598,0.40094 9.30236,-0.421134 12.18656,-0.421134 z m -6.88949,-3.637094 c -0.33875,-0.526579 0.97456,-1.227701 2.69007,-1.436102 1.88398,-0.228867 2.08186,-0.0384 1.05762,1.017746 -0.4944,0.509791 -1.05408,0.692478 -2.12145,0.692478 -0.79743,0 -1.52923,-0.123342 -1.62624,-0.274122 z m -2.49958,-2.850431 c -4.09303,-1.289461 -5.18573,-3.325299 -4.83661,-9.011168 0.2326,-3.788301 0.84452,-5.945637 2.19407,-7.735409 1.22946,-1.630502 2.6457,-2.351073 4.62087,-2.351073 1.97751,0 3.3916,0.720815 4.62626,2.35821 1.58378,2.100395 2.08038,4.249295 2.10429,9.105826 0.0251,5.126758 -0.31466,6.016877 -2.68183,7.022829 -1.65664,0.704 -4.73948,1.016411 -6.02705,0.610785 z m -0.91956,-3.222269 c -0.5975,-0.522048 -1.25174,-0.851003 -1.45385,-0.731004 -0.46924,0.278608 1.20133,1.702452 1.9822,1.689477 0.41122,-0.0073 0.27223,-0.258986 -0.52835,-0.958473 z m 6.68743,0.332968 c 0,0.470856 0.50647,-0.722695 0.39461,-0.830128 -0.33115,-0.318141 -1.14963,0.114797 -1.53926,0.814202 -0.49134,0.881975 1.14465,-1.167337 1.14465,0.01589 z M 137.0778,74.931124 c -1.26225,-0.496298 -1.91796,-1.552533 -2.07206,-3.337603 -0.14098,-1.633208 -0.0863,-1.788801 0.99141,-2.824198 1.89503,-1.820526 4.30266,-1.907021 5.98985,-0.215194 1.75864,1.76345 1.36366,4.927781 -0.76593,6.136305 -0.99557,0.564977 -3.01953,0.682553 -4.14327,0.24069 z m 27.9348,-0.31795 c -1.36277,-0.798277 -1.7502,-1.54083 -1.7502,-3.354565 0,-1.299495 0.15739,-1.63309 1.27873,-2.710336 1.08282,-1.040255 1.49241,-1.228436 2.67367,-1.228436 1.18126,0 1.59087,0.188181 2.67368,1.228436 1.21917,1.171232 1.41686,1.705729 1.3011,3.517811 -0.17374,2.719925 -3.52371,4.101294 -6.17698,2.54709 z M 130.05397,54.554162 c 0,-3.522519 -4.14184,-4.261511 -7.59016,-3.872891 -2.41691,0.272376 -3.44895,-0.61112 -2.16018,-1.849241 0.70565,-0.677894 4.46519,-0.659848 6.58747,0.03165 2.17393,0.708311 5.59184,3.926687 5.91215,5.56703 0.26978,1.381459 0.0351,1.814552 -0.98332,1.814552 -0.59017,0 -1.76596,-0.207639 -1.76596,-1.691084 z m 43.42937,1.22869 c -1.07776,-1.247557 1.83242,-5.292381 4.8171,-6.695236 1.54734,-0.727284 2.33976,-0.893433 4.2609,-0.893433 2.58303,0 3.42734,0.388451 3.42734,1.576874 0,0.918688 -0.38676,1.042209 -2.66924,0.852537 -3.21152,-0.266888 -5.83545,1.122153 -7.2754,3.851391 -0.96103,1.821517 -1.76308,2.231155 -2.5607,1.307867 z m 56.31537,12.591233 c 0.2741,-0.07681 0.76217,-0.581177 1.08459,-1.120868 0.58121,-0.972891 0.57603,-1.006504 -0.60629,-3.937918 -0.65585,-1.626154 -1.32538,-2.956639 -1.48782,-2.956639 -0.47842,0 -1.29572,1.777707 -1.51099,3.286556 -0.17136,1.201088 0.29848,4.232044 0.78143,5.040953 0.0851,0.14239 0.39895,0.16183 0.69764,0.04322 0.29869,-0.118629 0.76735,-0.278516 1.04144,-0.355304 z"
       id="path446-9"
       sodipodi:nodetypes="csssssssssssssssssscscsssssssssssscssssssscsssscsscscsccscsscssscccsssssssscsscsscsscsccsscsscssscscssssscscsssscssssscssscsssssssssscsscssscsssssssscssssscssssssssssssscssssssssssssssssssssssssssssssscssssssssssssssssssssccsssssscsssssssssssssscsscssscccsssssssscssssssssssssssssccscscsscsssccssccscssssscccsssssscccsscssccccsscccsscccssssssscsssssssssssssssssssssssssscsscssssssssssssssssssssssssscscssscssssssssssssssssssssssssssssssssssssssssssssssssssssssssssssssssssssssssssssssscscccsssssssssssssssssccccccssssscssscssscccccssscccccccccsscssssssccccccssccsscscssccsssssssscssssssssssssccssccssssssccscssscsccssscccccccccssssssssssssscssssssssscssssssssssscsssscsssssssssssssssssssssssssscssssssssssssssssssssssssssssssssssssssssss"
       inkscape:label="path446-9" />
  </g>
</svg>
